<?xml version="1.0" encoding="utf-8"?>
<!-- Generator: Adobe Illustrator 26.3.1, SVG Export Plug-In . SVG Version: 6.00 Build 0)  -->
<svg version="1.1" id="Ebene_2_00000023994356195402159460000012843433409337631111_"
	 xmlns="http://www.w3.org/2000/svg" xmlns:xlink="http://www.w3.org/1999/xlink" x="0px" y="0px" viewBox="0 0 764.5 54.4"
	 style="enable-background:new 0 0 764.5 54.4;" xml:space="preserve">
<style type="text/css">
	.st0{fill:#EB5D0B;}
</style>
<g id="Ebene_1-2">
	<g>
		<path class="st0" d="M382.2,15.4c-23.9,0-23.9-8.3-47.8-8.3s-23.9,8.3-47.8,8.3S262.9,7.1,239,7.1s-23.9,8.3-47.8,8.3
			s-23.9-8.3-47.8-8.3s-23.9,8.3-47.8,8.3S71.9,7.1,48,7.1s-23.9,8.3-47.8,8.3"/>
		<rect y="15.4" class="st0" width="382" height="39"/>
	</g>
</g>
<g id="Ebene_1-2_00000079465691776468766950000014953309818496682923_">
	<g>
		<path class="st0" d="M764.5,15.4c-23.8,0-23.8-8.3-47.8-8.3s-23.9,8.3-47.8,8.3s-23.8-8.3-47.8-8.3s-23.9,8.3-47.8,8.3
			s-23.8-8.3-47.8-8.3c-23.9,0-23.9,8.3-47.8,8.3s-23.9-8.3-47.8-8.3s-23.9,8.3-47.8,8.3"/>
		<rect x="381.7" y="15.4" class="st0" width="382.5" height="39"/>
	</g>
</g>
</svg>
